<?xml version="1.0" encoding="utf-8"?>
<!-- Generator: Adobe Illustrator 22.0.0, SVG Export Plug-In . SVG Version: 6.00 Build 0)  -->
<svg version="1.1" id="Capa_1" xmlns="http://www.w3.org/2000/svg" xmlns:xlink="http://www.w3.org/1999/xlink" x="0px" y="0px"
	 viewBox="0 0 512 512" style="enable-background:new 0 0 512 512;" xml:space="preserve">
<style type="text/css">
	.st0{fill:#303C42;}
	.st1{fill:#E53B34;}
	.st2{fill:#FFFFFF;}
	.st3{fill:#465B65;}
	.st4{fill:#313C42;}
	.st5{fill:#F2F2F2;}
	.st6{opacity:0.1;enable-background:new    ;}
	.st7{fill:#3A4850;stroke:#344249;stroke-width:5;stroke-miterlimit:10;}
	.st8{fill:#3A4850;stroke:#3A4850;stroke-width:5;stroke-miterlimit:10;}
</style>
<g>
	<circle class="st0" cx="256" cy="256" r="256"/>
	<path class="st1" d="M488.6,246.5C483.9,123.8,381.6,25.8,256,25.8s-227.9,98-232.6,220.7c4.7-53.4,107.1-96,232.6-96
		S483.9,193.1,488.6,246.5z"/>
	<path class="st2" d="M488.6,270C483.9,392.7,381.6,490.8,256,490.8S28.1,392.7,23.4,270c4.7,53.4,107.1,96,232.6,96
		S483.9,323.4,488.6,270z"/>
	<ellipse class="st0" cx="256" cy="158.9" rx="93.7" ry="69.2"/>
	<ellipse class="st3" cx="256" cy="158.9" rx="76.6" ry="52.5"/>
	<ellipse class="st4" cx="256" cy="158.9" rx="59.5" ry="42"/>
	<ellipse class="st5" cx="256" cy="158.9" rx="42" ry="25.9"/>
	<path class="st6" d="M488.6,225.7c-2.2,0.4-4.7,0.8-7.5,1.3c-7.9,1.3-18.2,2.7-30.8,4.2c-1.5,0.2-3,0.3-4.5,0.5
		c-0.2,0-0.3,0-0.5,0.1c-1.3,0.1-2.6,0.3-3.9,0.4h0c-4.1,0.5-8.5,0.9-13.1,1.3c0.2-1,0.4-2,0.6-3c0.2-0.9,0.4-1.9,0.5-2.8
		c0.1-0.5,0.2-0.9,0.2-1.4c0-0.1,0.1-0.3,0.1-0.4c0.7-3.9,1.3-7.8,1.7-11.7c0.8-6.7,1.3-13.5,1.3-20.4c0-45.9-16.1-88.8-43.7-125.7
		C443.9,108.4,480.8,163.7,488.6,225.7z"/>
	<path class="st6" d="M488.5,258.1c-10.4,2.2-27.1,5.2-49.7,7.6c-26,99.1-116,172.5-223.2,172.5c-60.8,0-116-23.8-157.3-62.3
		c40.1,68.6,114.3,114.8,199.3,114.8c127.3,0,230.9-103.6,230.9-230.9C488.6,259.3,488.6,258.7,488.5,258.1z"/>
	<path class="st7" d="M473.8,261.9c0,47.1-97.5,85.3-217.8,85.3c-120.3,0-217.8-38.2-217.8-85.3H473.8z"/>
	<ellipse class="st8" cx="256" cy="261.1" rx="217.8" ry="27.6"/>
	<path class="st6" d="M492.9,233.6c-10.5,1.1-27.4,2.5-50.2,3.7c-26.2,48.6-117.2,84.5-225.4,84.5c-61.4,0-117.2-11.7-158.9-30.5
		c40.5,33.6,115.5,56.3,201.3,56.3c128.6,0,233.3-50.7,233.3-113.1C493,234.1,492.9,233.8,492.9,233.6z"/>
	<g>
		<g>
			<path class="st0" d="M430,227.1c0.8,3.5,2.8,6.1,6.1,7.5c2.5,1.1,5.2-1.7,3-3.9c-2.5-2.6-5.2-4.2-8.6-5.3
				c-1.2-0.4-2.8,0.5-3.1,1.7c-0.8,3.6,0.7,6.3,4.1,7.5c2.4,0.9,4.2-2.5,2.4-4.2c-1.1-1-2.2-1.9-3.6-2.6c0.3,1.1,0.6,2.3,0.9,3.4
				c3.3-4.8,6.1-9.5,6.4-15.5c-1.7,0-3.3,0-5,0c-0.5,1-0.9,2-1.4,3c1.4,0.4,2.8,0.7,4.2,1.1c-1.5-10.9,4.2-21.5-0.9-32
				c-1.1,1.1-2.3,2.3-3.4,3.4c15.6,10.9,34.2,19.6,42.9,37.5c0.9-1.2,1.9-2.4,2.8-3.7c-6.4-2.3-12.3,0.1-18.3,2.5
				c-3,1.2-6.3,2.6-9.6,2.3c-2.1-0.2-3.5-1-5.2-2.1c-3.4-2.3-3.4-4.2-3.4-8.1c-1.4,0.6-2.8,1.2-4.3,1.8c3.3,3.1,4.4,6.7,3.9,11.1
				c0.8-0.8,1.7-1.7,2.5-2.5c-2.7-0.1-4.1-2.1-5.3-4.2c-0.3-0.5-2.3-4.2-1.9-4.5c-1-0.1-2-0.3-3-0.4c1.8,2,3.2,4,4.6,6.3
				c1.4,2.4,5.7,0.7,4.6-1.9c-3.2-7.7-5.7-15.6-7.5-23.7c-1.4,0.8-2.8,1.6-4.2,2.4c4.4,3.6,7.4,8,9,13.5c0.7,2.6,5.3,2.2,4.9-0.7
				c-0.7-5.5-1.9-10.8-3.6-16.1c-1-3.1-5.4-1.8-4.8,1.3c1,5.1,1.9,10.2,2.9,15.3c1.6-0.4,3.2-0.9,4.8-1.3
				c-2.1-6.6-3.1-13.2-3.2-20.1c-1.6,0.4-3.1,0.8-4.7,1.3c3.7,5.6,7.8,10.9,12.4,15.9c1.6,1.7,5.1-0.1,4.2-2.4
				c-1.5-3.6-2.9-7.3-4.4-10.9c-1.5,0.6-3,1.3-4.6,1.9c2.4,4.7,6.9,6.5,11.4,8.8c5.7,3,10.4,7.1,14.4,12.1c0.2-1.3,0.3-2.6,0.5-3.9
				c-4.1,1.7-8,3.7-11.8,5.9c1,1.3,2,2.6,3,3.9c3.4-3.2,7.5-4.1,12-2.9c0-1.6,0-3.2,0-4.8c-5.8,1.4-11.6,3.1-17.5,4.3
				c-3.6,0.7-5.7-0.2-7.5-3.4c-1.8-3.3-3.2-7.4-0.1-10.4c-1.4-0.4-2.8-0.7-4.2-1.1c0.8,3.8,0.9,7.4,0.6,11.3
				c1.6-0.4,3.1-0.8,4.7-1.3c-2.7-4.7-4.3-9.6-5-15c-1.3,0.7-2.5,1.4-3.8,2.2c5.9,3.8,9.7,9.3,11.2,16.1c1.5-0.6,3-1.3,4.6-1.9
				c-1.4-3.1-2.7-6.3-3.8-9.5c-1-2.7-4.7-2.2-4.9,0.7c-0.2,3-0.4,6.1-0.6,9.1c1.6-0.4,3.1-0.8,4.7-1.3c-0.1-0.2-0.2-0.4-0.3-0.7
				c0,0.8,0,1.7,0,2.5c-0.9,1.8,1.4,4.5,2.1,6.1c1.5-0.6,3-1.3,4.6-1.9c-1.8-3.3-3.2-6.7-4.3-10.3c-0.8-2.8-4.8-2.1-4.9,0.7
				c-0.1,2.4-0.2,4.9-0.3,7.3c-0.1,3,4,3.2,4.9,0.7c1.5-4.1,3.1-8.2,4.6-12.3c-1.4,0.4-2.8,0.7-4.2,1.1c2.2,2.8,3.4,5.8,3.7,9.3
				c1.6-0.4,3.1-0.8,4.7-1.3c-2.6-4.2-4.3-8.7-6-13.3c-1.6,0.4-3.2,0.9-4.8,1.3c1.8,4.7,3.7,9.3,5.5,14c0.9,2.2,4,2.5,4.8,0
				c0-0.1,0.1-0.3,0.1-0.4c0.3-0.9-0.1-1.8-0.6-2.4c-0.8-0.9-2.1-1.4-3.3-1.1c-0.9,0.3-2.3,2.2-2.1,2.2c1,1,2.1,2.1,3.1,3.1
				c1-2.8,5.8-3.3,7.5-6c1.3-2.1,1.2-4.4-0.2-6.4c-0.7-1-1.6-1.3-2.8-1.1c-2,0.3-3.3,2-3.3,4c0,1,0.4,1.8,0.9,2.6
				c0.4,0.5,3.3,2.6,3.3,2.9c1-0.6,2.1-1.2,3.1-1.7c-6.6-1-13.2-0.5-19.4,2.2c-3.8,1.7-7.9,5.4-4,9.4c2.3,2.3,5.8-1.2,3.5-3.5
				c-0.2-0.2,7.3-2.9,8.4-3.1c3.3-0.7,6.8-0.6,10.1-0.1c1.2,0.2,2.9-0.3,3.1-1.7c0.4-3-1.1-6.6-4.3-6c-0.9-0.4-1.9-0.8-2.8-1.1
				c1.1,1.5-4.1,3.8-5,4.5c-1.4,1.1-2.2,2.3-2.7,4c-0.7,2,1.3,3.4,3.1,3.1c0.9-0.2,1.4-0.4,2-1c2.4-2.3-0.8-0.7-1.5-1.4
				c-0.2-0.8-0.4-1.6-0.6-2.4c0,0.1-0.1,0.3-0.1,0.4c1.6,0,3.2,0,4.8,0c-1.8-4.7-3.7-9.3-5.5-14c-1.2-2.9-5.9-1.7-4.8,1.3
				c1.8,5,3.7,9.9,6.5,14.5c1.2,2,4.9,1.3,4.7-1.3c-0.5-4.9-2.1-9-5.2-12.9c-1.3-1.6-3.6-0.4-4.2,1.1c-1.5,4.1-3.1,8.2-4.6,12.3
				c1.6,0.2,3.3,0.4,4.9,0.7c0.1-2.4,0.2-4.9,0.3-7.3c-1.6,0.2-3.3,0.4-4.9,0.7c1.2,4,2.8,7.8,4.8,11.5c1.3,2.4,5.6,0.8,4.6-1.9
				c-1.2-3.1-3.5-9.3-7.6-9.6c-3.2-0.2-4.4,2.9-3.3,5.4c1.1,2.5,4.5,0.9,4.7-1.3c0.2-3,0.4-6.1,0.6-9.1c-1.6,0.2-3.3,0.4-4.9,0.7
				c1.3,3.6,2.7,7.1,4.3,10.7c1.2,2.7,5.2,0.7,4.6-1.9c-1.8-8.1-6.6-14.7-13.5-19.1c-1.5-0.9-4,0.3-3.8,2.2c0.7,6.3,2.5,12,5.6,17.5
				c1.3,2.3,4.5,1.1,4.7-1.3c0.4-4.3,0.1-8.4-0.8-12.6c-0.4-1.9-2.9-2.3-4.2-1.1c-5.8,5.6-3.2,15.6,2.2,20.6
				c2.7,2.5,6.1,2.4,9.5,1.7c6.1-1.2,12.1-3,18.1-4.5c2.4-0.6,2.3-4.2,0-4.8c-6.2-1.7-12.1-0.2-16.8,4.2c-2.1,2,0.6,5.3,3,3.9
				c3.8-2.2,7.8-4.1,11.8-5.9c1.6-0.7,1.4-2.8,0.5-3.9c-3.3-4.1-7-7.6-11.4-10.5c-4.4-2.9-11.1-4.5-13.6-9.4
				c-1.3-2.5-5.6-0.7-4.6,1.9c1.5,3.6,2.9,7.3,4.4,10.9c1.4-0.8,2.8-1.6,4.2-2.4c-4.3-4.6-8.1-9.6-11.6-14.9c-1.3-2-4.7-1.3-4.7,1.3
				c0,7.3,1.1,14.4,3.3,21.4c1,3.1,5.4,1.8,4.8-1.3c-1-5.1-1.9-10.2-2.9-15.3c-1.6,0.4-3.2,0.9-4.8,1.3c1.6,4.8,2.7,9.7,3.4,14.7
				c1.6-0.2,3.3-0.4,4.9-0.7c-1.7-6.3-5.1-11.6-10.2-15.7c-1.9-1.5-4.7-0.1-4.2,2.4c1.8,8.1,4.3,16,7.5,23.7c1.5-0.6,3-1.3,4.6-1.9
				c-1.5-2.7-3.3-5-5.3-7.3c-0.7-0.8-2.2-1-3-0.4c-7.6,5.1,3.2,17.7,9.8,18c1.5,0.1,2.4-1.2,2.5-2.5c0.6-5.6-1.3-10.8-5.4-14.7
				c-1.6-1.5-4.2-0.4-4.3,1.8c-0.1,4.6,2.1,17.1,9.6,12.1c5.3-3.5-0.2-11.9-5.4-8.5c-6.3,4.1,3.6,10.6,7.5,11.3
				c10.1,1.8,18.7-8.2,28.5-4.7c2.2,0.8,3.7-1.9,2.8-3.7c-9.1-18.7-28.4-28-44.7-39.3c-2.2-1.6-4.4,1.4-3.4,3.4
				c4.5,9.4-1,20.8,0.4,30.8c0.3,2,3,2.3,4.2,1.1c2-1.9,2.8-3.8,2.9-6.6c0.1-3.2-4.8-3.2-5,0c-0.3,5-3,9-5.8,13
				c-0.8,1.1-0.2,2.8,0.9,3.4c1,0.4,1.8,1.1,2.5,1.8c0.8-1.4,1.6-2.8,2.4-4.2c-0.2-0.5-0.4-0.9-0.7-1.4c-1,0.6-2.1,1.2-3.1,1.7
				c2.6,0.8,4.5,2,6.4,4c1-1.3,2-2.6,3-3.9c-2.1-0.9-3.3-2.2-3.8-4.5C434.1,222.6,429.3,223.9,430,227.1L430,227.1z"/>
		</g>
	</g>
	<g>
		<g>
			<path class="st0" d="M439.8,243.3c8.9-1.3,19.8,1.3,28.1,4.7c6.6,2.7,11,10.2,18.6,10.2c5.4,0,8.3-3.8,7.7-8.8
				c-0.4-3.2,0-5.3,0.6-8.3c0.2-1,0.5-2.1,0.5-3.2c0.1-2.9-0.7-5.4-2.9-7.2c-1.5-1.3-4.4-0.6-4.3,1.8c0.3,4.5,0.5,9,0.8,13.5
				c0.2,3,0.6,5.3-2.4,2.1c-1.2-1.3-2-3.1-2.8-4.6c-2.4-4.4-4.6-11.7-10.8-11.6c-2.1,0.1-3.3,2.7-1.8,4.3c4.5,4.5,7.7,9.6,9.6,15.7
				c1.4-0.8,2.8-1.6,4.2-2.4c-5-4.9-9.7-10.1-14.1-15.6c-1.2,1.2-2.4,2.4-3.5,3.5c2.2,2,4,4.2,5.5,6.8c1.3-1,2.6-2,3.9-3
				c-3.1-2.4-6.2-4.8-9.3-7.2c-2-1.6-5.7,0.5-3.9,3c1.5,2.1,3,4.3,4.5,6.4c1.1-1.1,2.3-2.3,3.4-3.4c-3.5-1.8-6.8-3.9-10-6.2
				c-2-1.5-4.9,1.4-3.4,3.4c1.1,1.5,2.2,3,3.3,4.5c1.1-1.1,2.3-2.3,3.4-3.4c-6-4-12.7-5.9-19.9-5.6c-1.5,0.1-3,1.6-2.4,3.2
				c1,2.8,2.9,4.5,5.9,5.2c2.7,0.6,5.5,0.3,8.2,0.9c2.2,0.5,4.2,1.1,6.4,1c4.3-0.1,7.6-2.1,11-4.4c0.7-0.5,1.3-0.9,2-1.3
				c1.9,0.7,3.8,1.3,5.7,2c0.5,0.6,0.5,2,0.7,2.7c0.7,2.7,1.2,5.4,1.8,8.2c1.2-0.9,2.4-1.9,3.7-2.8c-3.3-1.7-2.7-6.2-3.8-9.2
				c-0.9-2.2-2.7-3.9-3.4-6.1c-0.5-1.7-2.9-2.6-4.2-1.1c-7.5,8.5,1.7,16.8,2.3,25.7c0.6-0.8,1.2-1.6,1.8-2.4
				c-2.1,0.7-5.8-4.5-7.5-5.7c-2.3-1.6-4.8-2.8-7.4-3.8c-6.4-2.5-13.3-3.6-19.5-6.5c-2.9-1.4-5.4,2.9-2.5,4.3
				c7.1,3.4,14.9,4.4,22.1,7.6c3.9,1.8,6.2,4.5,9.4,7.2c2.1,1.8,4.2,2.7,6.8,1.8c1-0.3,1.9-1.3,1.8-2.4c-0.4-6.4-8.6-16.6-3.7-22.2
				c-1.4-0.4-2.8-0.7-4.2-1.1c0.5,1.5,1.1,2.6,1.9,3.9c1.5,2.4,2,4.3,2.6,7.1c0.7,3.2,2,5.9,5,7.4c2,1,4.2-0.6,3.7-2.8
				c-1.4-6.3-2.2-18.4-11.5-17.2c-5.1,0.7-8.2,5.5-13.2,6.2c-3.2,0.5-5.7-0.7-8.8-1.2c-2.2-0.3-7.2,0.6-8.1-2
				c-0.8,1.1-1.6,2.1-2.4,3.2c6.4-0.3,12,1.4,17.3,4.9c2,1.3,4.9-1.4,3.4-3.4c-1.1-1.5-2.2-3-3.3-4.5c-1.1,1.1-2.3,2.3-3.4,3.4
				c3.2,2.3,6.5,4.4,10,6.2c2,1.1,4.9-1.2,3.4-3.4c-1.5-2.1-3-4.3-4.5-6.4c-1.3,1-2.6,2-3.9,3c3.1,2.4,6.2,4.8,9.3,7.2
				c2.1,1.6,5.5-0.4,3.9-3c-1.8-2.9-3.8-5.5-6.3-7.8c-2.4-2.2-5.5,1.1-3.5,3.5c4.4,5.5,9.1,10.7,14.1,15.6c1.7,1.7,4.9,0,4.2-2.4
				c-2.2-6.9-5.7-12.8-10.9-17.9c-0.6,1.4-1.2,2.8-1.8,4.3c3.6-0.1,7.1,10.9,9,13.5c1.8,2.5,4.5,4.8,7.8,4.6
				c2.5-0.2,4.1-1.7,4.4-4.2c0.4-2.7-0.3-6-0.5-8.7c-0.2-3.2-0.4-6.4-0.6-9.6c-1.4,0.6-2.8,1.2-4.3,1.8c3,2.6,0.5,6.8,0,9.9
				c-0.2,1.1-0.4,2.2-0.3,3.3c0,0.8,1,2.8,0.8,3.4c-1,0.8-1.9,1.6-2.9,2.5c-1.2,0-2.2-0.3-3.2-0.9c-1.7-0.7-3.1-2-4.5-3.1
				c-2.2-1.8-4.1-3.5-6.7-4.8c-9.7-4.9-23-7.5-33.7-6C435.3,239,436.6,243.8,439.8,243.3L439.8,243.3z"/>
		</g>
	</g>
</g>
</svg>
